<?xml version="1.0" encoding="iso-8859-1"?>
<!-- Generator: Adobe Illustrator 19.0.0, SVG Export Plug-In . SVG Version: 6.00 Build 0)  -->
<svg xmlns="http://www.w3.org/2000/svg" xmlns:xlink="http://www.w3.org/1999/xlink" version="1.1" id="Capa_1" x="0px" y="0px" viewBox="0 0 480 480" style="enable-background:new 0 0 480 480;" xml:space="preserve" width="512px" height="512px">
<g>
	<g>
		<path d="M464,352h-88V8c0-4.418-3.582-8-8-8H16c-4.418,0-8,3.582-8,8v416c0.035,30.913,25.087,55.965,56,56h352    c30.913-0.035,55.965-25.087,56-56v-64C472,355.582,468.418,352,464,352z M64,464c-22.08-0.026-39.974-17.92-40-40V16h336v408    c-0.002,15.065,6.086,29.491,16.88,40H64z M456,424c0,22.091-17.909,40-40,40c-22.091,0-40-17.909-40-40v-56h80V424z" fill="#e52884"/>
	</g>
</g>
<g>
	<g>
		<path d="M234.332,63.86c-26.51-23.379-66.953-20.842-90.332,5.668c-21.333,24.19-21.333,60.474,0,84.664V232    c-0.003,4.418,3.576,8.003,7.994,8.006c1.022,0.001,2.034-0.194,2.982-0.574L192,224.616l37.024,14.816    c4.101,1.644,8.758-0.349,10.402-4.45c0.38-0.948,0.575-1.961,0.574-2.982v-77.808C263.379,127.682,260.842,87.239,234.332,63.86z     M224,220.224l-24-9.64V192h-16v18.584l-24,9.6v-52.8c19.773,11.541,44.228,11.541,64,0V220.224z M192,160    c-26.51,0-48-21.49-48-48c0.026-26.499,21.501-47.974,48-48c26.51,0,48,21.49,48,48S218.51,160,192,160z" fill="#e52884"/>
	</g>
</g>
<g>
	<g>
		<rect x="136" y="280" width="112" height="16" fill="#e52884"/>
	</g>
</g>
<g>
	<g>
		<rect x="72" y="328" width="240" height="16" fill="#e52884"/>
	</g>
</g>
<g>
	<g>
		<path d="M192,72c-22.091,0-40,17.909-40,40c0.026,22.08,17.92,39.974,40,40c22.091,0,40-17.909,40-40S214.091,72,192,72z M192,136    c-13.255,0-24-10.745-24-24s10.745-24,24-24s24,10.745,24,24S205.255,136,192,136z" fill="#e52884"/>
	</g>
</g>
<g>
</g>
<g>
</g>
<g>
</g>
<g>
</g>
<g>
</g>
<g>
</g>
<g>
</g>
<g>
</g>
<g>
</g>
<g>
</g>
<g>
</g>
<g>
</g>
<g>
</g>
<g>
</g>
<g>
</g>
</svg>
